<svg width="1216" height="465" viewBox="0 0 1216 465" fill="none" xmlns="http://www.w3.org/2000/svg">
<g opacity="0.4">
<circle cx="27.4763" cy="460.064" r="2.51253" fill="#A1C487" fill-opacity="0.69"/>
<circle cx="73.9582" cy="460.064" r="2.51253" fill="#A1C487" fill-opacity="0.69"/>
<circle cx="120.44" cy="460.064" r="2.51253" fill="#A1C487" fill-opacity="0.69"/>
<circle cx="166.922" cy="460.064" r="2.51253" fill="#A1C487" fill-opacity="0.69"/>
<circle cx="213.404" cy="460.064" r="2.51253" fill="#A1C487" fill-opacity="0.69"/>
<circle cx="259.886" cy="460.064" r="2.51253" fill="#A1C487" fill-opacity="0.69"/>
<circle cx="306.368" cy="460.064" r="2.51253" fill="#A1C487" fill-opacity="0.69"/>
<circle cx="352.85" cy="460.064" r="2.51253" fill="#A1C487" fill-opacity="0.69"/>
<circle cx="399.332" cy="460.064" r="2.51253" fill="#A1C487" fill-opacity="0.69"/>
<circle cx="445.813" cy="460.064" r="2.51253" fill="#A1C487" fill-opacity="0.69"/>
<circle cx="492.295" cy="460.064" r="2.51253" fill="#A1C487" fill-opacity="0.69"/>
<circle cx="538.777" cy="460.064" r="2.51253" fill="#A1C487" fill-opacity="0.69"/>
<circle cx="585.259" cy="460.064" r="2.51253" fill="#A1C487" fill-opacity="0.69"/>
<circle cx="631.741" cy="460.064" r="2.51253" fill="#A1C487" fill-opacity="0.69"/>
<circle cx="678.223" cy="460.064" r="2.51253" fill="#A1C487" fill-opacity="0.69"/>
<circle cx="724.705" cy="460.064" r="2.51253" fill="#A1C487" fill-opacity="0.69"/>
<circle cx="771.187" cy="460.064" r="2.51253" fill="#A1C487" fill-opacity="0.69"/>
<circle cx="817.669" cy="460.064" r="2.51253" fill="#A1C487" fill-opacity="0.69"/>
<circle cx="864.15" cy="460.064" r="2.51253" fill="#A1C487" fill-opacity="0.69"/>
<circle cx="910.632" cy="460.064" r="2.51253" fill="#A1C487" fill-opacity="0.69"/>
<circle cx="957.114" cy="460.064" r="2.51253" fill="#A1C487" fill-opacity="0.69"/>
<circle cx="1003.6" cy="460.064" r="2.51253" fill="#A1C487" fill-opacity="0.69"/>
<circle cx="1050.08" cy="460.064" r="2.51253" fill="#A1C487" fill-opacity="0.69"/>
<circle cx="1096.56" cy="460.064" r="2.51253" fill="#A1C487" fill-opacity="0.69"/>
<circle cx="1143.04" cy="460.064" r="2.51253" fill="#A1C487" fill-opacity="0.69"/>
<circle cx="1189.52" cy="460.064" r="2.51253" fill="#A1C487" fill-opacity="0.69"/>
<circle cx="27.4763" cy="414.838" r="2.51253" fill="#A1C487" fill-opacity="0.69"/>
<circle cx="73.9582" cy="414.838" r="2.51253" fill="#A1C487" fill-opacity="0.69"/>
<circle cx="120.44" cy="414.838" r="2.51253" fill="#A1C487" fill-opacity="0.69"/>
<circle cx="166.922" cy="414.838" r="2.51253" fill="#A1C487" fill-opacity="0.69"/>
<circle cx="213.404" cy="414.838" r="2.51253" fill="#A1C487" fill-opacity="0.69"/>
<circle cx="259.886" cy="414.838" r="2.51253" fill="#A1C487" fill-opacity="0.69"/>
<circle cx="306.368" cy="414.838" r="2.51253" fill="#A1C487" fill-opacity="0.69"/>
<circle cx="352.85" cy="414.838" r="2.51253" fill="#A1C487" fill-opacity="0.69"/>
<circle cx="399.332" cy="414.838" r="2.51253" fill="#A1C487" fill-opacity="0.69"/>
<circle cx="445.813" cy="414.838" r="2.51253" fill="#A1C487" fill-opacity="0.69"/>
<circle cx="492.295" cy="414.838" r="2.51253" fill="#A1C487" fill-opacity="0.69"/>
<circle cx="538.777" cy="414.838" r="2.51253" fill="#A1C487" fill-opacity="0.69"/>
<circle cx="585.259" cy="414.838" r="2.51253" fill="#A1C487" fill-opacity="0.69"/>
<circle cx="631.741" cy="414.838" r="2.51253" fill="#A1C487" fill-opacity="0.69"/>
<circle cx="678.223" cy="414.838" r="2.51253" fill="#A1C487" fill-opacity="0.69"/>
<circle cx="724.705" cy="414.838" r="2.51253" fill="#A1C487" fill-opacity="0.69"/>
<circle cx="771.187" cy="414.838" r="2.51253" fill="#A1C487" fill-opacity="0.69"/>
<circle cx="817.669" cy="414.838" r="2.51253" fill="#A1C487" fill-opacity="0.69"/>
<circle cx="864.15" cy="414.838" r="2.51253" fill="#A1C487" fill-opacity="0.69"/>
<circle cx="910.632" cy="414.838" r="2.51253" fill="#A1C487" fill-opacity="0.69"/>
<circle cx="957.114" cy="414.838" r="2.51253" fill="#A1C487" fill-opacity="0.69"/>
<circle cx="1003.6" cy="414.838" r="2.51253" fill="#A1C487" fill-opacity="0.69"/>
<circle cx="1050.08" cy="414.838" r="2.51253" fill="#A1C487" fill-opacity="0.69"/>
<circle cx="1096.56" cy="414.838" r="2.51253" fill="#A1C487" fill-opacity="0.69"/>
<circle cx="1143.04" cy="414.838" r="2.51253" fill="#A1C487" fill-opacity="0.69"/>
<circle cx="1189.52" cy="414.838" r="2.51253" fill="#A1C487" fill-opacity="0.69"/>
<circle cx="27.4763" cy="369.613" r="2.51253" fill="#A1C487" fill-opacity="0.69"/>
<circle cx="73.9582" cy="369.613" r="2.51253" fill="#A1C487" fill-opacity="0.69"/>
<circle cx="120.44" cy="369.613" r="2.51253" fill="#A1C487" fill-opacity="0.69"/>
<circle cx="166.922" cy="369.613" r="2.51253" fill="#A1C487" fill-opacity="0.69"/>
<circle cx="213.404" cy="369.613" r="2.51253" fill="#A1C487" fill-opacity="0.69"/>
<circle cx="259.886" cy="369.613" r="2.51253" fill="#A1C487" fill-opacity="0.69"/>
<circle cx="306.368" cy="369.613" r="2.51253" fill="#A1C487" fill-opacity="0.69"/>
<circle cx="352.85" cy="369.613" r="2.51253" fill="#A1C487" fill-opacity="0.69"/>
<circle cx="399.332" cy="369.613" r="2.51253" fill="#A1C487" fill-opacity="0.69"/>
<circle cx="445.813" cy="369.613" r="2.51253" fill="#A1C487" fill-opacity="0.69"/>
<circle cx="492.295" cy="369.613" r="2.51253" fill="#A1C487" fill-opacity="0.69"/>
<circle cx="538.777" cy="369.613" r="2.51253" fill="#A1C487" fill-opacity="0.69"/>
<circle cx="585.259" cy="369.613" r="2.51253" fill="#A1C487" fill-opacity="0.69"/>
<circle cx="631.741" cy="369.613" r="2.51253" fill="#A1C487" fill-opacity="0.69"/>
<circle cx="678.223" cy="369.613" r="2.51253" fill="#A1C487" fill-opacity="0.69"/>
<circle cx="724.705" cy="369.613" r="2.51253" fill="#A1C487" fill-opacity="0.69"/>
<circle cx="771.187" cy="369.613" r="2.51253" fill="#A1C487" fill-opacity="0.69"/>
<circle cx="817.669" cy="369.613" r="2.51253" fill="#A1C487" fill-opacity="0.69"/>
<circle cx="864.15" cy="369.613" r="2.51253" fill="#A1C487" fill-opacity="0.69"/>
<circle cx="910.632" cy="369.613" r="2.51253" fill="#A1C487" fill-opacity="0.69"/>
<circle cx="957.114" cy="369.613" r="2.51253" fill="#A1C487" fill-opacity="0.69"/>
<circle cx="1003.6" cy="369.613" r="2.51253" fill="#A1C487" fill-opacity="0.69"/>
<circle cx="1050.08" cy="369.613" r="2.51253" fill="#A1C487" fill-opacity="0.69"/>
<circle cx="1096.56" cy="369.613" r="2.51253" fill="#A1C487" fill-opacity="0.69"/>
<circle cx="1143.04" cy="369.613" r="2.51253" fill="#A1C487" fill-opacity="0.69"/>
<circle cx="1189.52" cy="369.613" r="2.51253" fill="#A1C487" fill-opacity="0.69"/>
<circle cx="27.4763" cy="324.387" r="2.51253" fill="#A1C487" fill-opacity="0.69"/>
<circle cx="73.9582" cy="324.387" r="2.51253" fill="#A1C487" fill-opacity="0.69"/>
<circle cx="120.44" cy="324.387" r="2.51253" fill="#A1C487" fill-opacity="0.69"/>
<circle cx="166.922" cy="324.387" r="2.51253" fill="#A1C487" fill-opacity="0.69"/>
<circle cx="213.404" cy="324.387" r="2.51253" fill="#A1C487" fill-opacity="0.69"/>
<circle cx="259.886" cy="324.387" r="2.51253" fill="#A1C487" fill-opacity="0.69"/>
<circle cx="306.368" cy="324.387" r="2.51253" fill="#A1C487" fill-opacity="0.69"/>
<circle cx="352.85" cy="324.387" r="2.51253" fill="#A1C487" fill-opacity="0.69"/>
<circle cx="399.332" cy="324.387" r="2.51253" fill="#A1C487" fill-opacity="0.69"/>
<circle cx="445.813" cy="324.387" r="2.51253" fill="#A1C487" fill-opacity="0.69"/>
<circle cx="492.295" cy="324.387" r="2.51253" fill="#A1C487" fill-opacity="0.69"/>
<circle cx="538.777" cy="324.387" r="2.51253" fill="#A1C487" fill-opacity="0.69"/>
<circle cx="585.259" cy="324.387" r="2.51253" fill="#A1C487" fill-opacity="0.69"/>
<circle cx="631.741" cy="324.387" r="2.51253" fill="#A1C487" fill-opacity="0.69"/>
<circle cx="678.223" cy="324.387" r="2.51253" fill="#A1C487" fill-opacity="0.69"/>
<circle cx="724.705" cy="324.387" r="2.51253" fill="#A1C487" fill-opacity="0.69"/>
<circle cx="771.187" cy="324.387" r="2.51253" fill="#A1C487" fill-opacity="0.69"/>
<circle cx="817.669" cy="324.387" r="2.51253" fill="#A1C487" fill-opacity="0.69"/>
<circle cx="864.15" cy="324.387" r="2.51253" fill="#A1C487" fill-opacity="0.69"/>
<circle cx="910.632" cy="324.387" r="2.51253" fill="#A1C487" fill-opacity="0.69"/>
<circle cx="957.114" cy="324.387" r="2.51253" fill="#A1C487" fill-opacity="0.69"/>
<circle cx="1003.6" cy="324.387" r="2.51253" fill="#A1C487" fill-opacity="0.69"/>
<circle cx="1050.08" cy="324.387" r="2.51253" fill="#A1C487" fill-opacity="0.69"/>
<circle cx="1096.56" cy="324.387" r="2.51253" fill="#A1C487" fill-opacity="0.69"/>
<circle cx="1143.04" cy="324.387" r="2.51253" fill="#A1C487" fill-opacity="0.69"/>
<circle cx="1189.52" cy="324.387" r="2.51253" fill="#A1C487" fill-opacity="0.69"/>
<circle cx="27.4763" cy="279.161" r="2.51253" fill="#A1C487" fill-opacity="0.69"/>
<circle cx="73.9582" cy="279.161" r="2.51253" fill="#A1C487" fill-opacity="0.69"/>
<circle cx="120.44" cy="279.161" r="2.51253" fill="#A1C487" fill-opacity="0.69"/>
<circle cx="166.922" cy="279.161" r="2.51253" fill="#A1C487" fill-opacity="0.69"/>
<circle cx="213.404" cy="279.161" r="2.51253" fill="#A1C487" fill-opacity="0.69"/>
<circle cx="259.886" cy="279.161" r="2.51253" fill="#A1C487" fill-opacity="0.69"/>
<circle cx="306.368" cy="279.161" r="2.51253" fill="#A1C487" fill-opacity="0.69"/>
<circle cx="352.85" cy="279.161" r="2.51253" fill="#A1C487" fill-opacity="0.69"/>
<circle cx="399.332" cy="279.161" r="2.51253" fill="#A1C487" fill-opacity="0.69"/>
<circle cx="445.813" cy="279.161" r="2.51253" fill="#A1C487" fill-opacity="0.69"/>
<circle cx="492.295" cy="279.161" r="2.51253" fill="#A1C487" fill-opacity="0.69"/>
<circle cx="538.777" cy="279.161" r="2.51253" fill="#A1C487" fill-opacity="0.69"/>
<circle cx="585.259" cy="279.161" r="2.51253" fill="#A1C487" fill-opacity="0.69"/>
<circle cx="631.741" cy="279.161" r="2.51253" fill="#A1C487" fill-opacity="0.69"/>
<circle cx="678.223" cy="279.161" r="2.51253" fill="#A1C487" fill-opacity="0.69"/>
<circle cx="724.705" cy="279.161" r="2.51253" fill="#A1C487" fill-opacity="0.69"/>
<circle cx="771.187" cy="279.161" r="2.51253" fill="#A1C487" fill-opacity="0.69"/>
<circle cx="817.669" cy="279.161" r="2.51253" fill="#A1C487" fill-opacity="0.69"/>
<circle cx="864.15" cy="279.161" r="2.51253" fill="#A1C487" fill-opacity="0.69"/>
<circle cx="910.632" cy="279.161" r="2.51253" fill="#A1C487" fill-opacity="0.69"/>
<circle cx="957.114" cy="279.161" r="2.51253" fill="#A1C487" fill-opacity="0.69"/>
<circle cx="1003.6" cy="279.161" r="2.51253" fill="#A1C487" fill-opacity="0.69"/>
<circle cx="1050.08" cy="279.161" r="2.51253" fill="#A1C487" fill-opacity="0.69"/>
<circle cx="1096.56" cy="279.161" r="2.51253" fill="#A1C487" fill-opacity="0.69"/>
<circle cx="1143.04" cy="279.161" r="2.51253" fill="#A1C487" fill-opacity="0.69"/>
<circle cx="1189.52" cy="279.161" r="2.51253" fill="#A1C487" fill-opacity="0.69"/>
<circle cx="27.4763" cy="233.936" r="2.51253" fill="#A1C487" fill-opacity="0.69"/>
<circle cx="73.9582" cy="233.936" r="2.51253" fill="#A1C487" fill-opacity="0.69"/>
<circle cx="120.44" cy="233.936" r="2.51253" fill="#A1C487" fill-opacity="0.69"/>
<circle cx="166.922" cy="233.936" r="2.51253" fill="#A1C487" fill-opacity="0.69"/>
<circle cx="213.404" cy="233.936" r="2.51253" fill="#A1C487" fill-opacity="0.69"/>
<circle cx="259.886" cy="233.936" r="2.51253" fill="#A1C487" fill-opacity="0.69"/>
<circle cx="306.368" cy="233.936" r="2.51253" fill="#A1C487" fill-opacity="0.69"/>
<circle cx="352.85" cy="233.936" r="2.51253" fill="#A1C487" fill-opacity="0.69"/>
<circle cx="399.332" cy="233.936" r="2.51253" fill="#A1C487" fill-opacity="0.69"/>
<circle cx="445.813" cy="233.936" r="2.51253" fill="#A1C487" fill-opacity="0.69"/>
<circle cx="492.295" cy="233.936" r="2.51253" fill="#A1C487" fill-opacity="0.69"/>
<circle cx="538.777" cy="233.936" r="2.51253" fill="#A1C487" fill-opacity="0.69"/>
<circle cx="585.259" cy="233.936" r="2.51253" fill="#A1C487" fill-opacity="0.69"/>
<circle cx="631.741" cy="233.936" r="2.51253" fill="#A1C487" fill-opacity="0.69"/>
<circle cx="678.223" cy="233.936" r="2.51253" fill="#A1C487" fill-opacity="0.69"/>
<circle cx="724.705" cy="233.936" r="2.51253" fill="#A1C487" fill-opacity="0.69"/>
<circle cx="771.187" cy="233.936" r="2.51253" fill="#A1C487" fill-opacity="0.69"/>
<circle cx="817.669" cy="233.936" r="2.51253" fill="#A1C487" fill-opacity="0.69"/>
<circle cx="864.15" cy="233.936" r="2.51253" fill="#A1C487" fill-opacity="0.69"/>
<circle cx="910.632" cy="233.936" r="2.51253" fill="#A1C487" fill-opacity="0.69"/>
<circle cx="957.114" cy="233.936" r="2.51253" fill="#A1C487" fill-opacity="0.69"/>
<circle cx="1003.6" cy="233.936" r="2.51253" fill="#A1C487" fill-opacity="0.69"/>
<circle cx="1050.08" cy="233.936" r="2.51253" fill="#A1C487" fill-opacity="0.69"/>
<circle cx="1096.56" cy="233.936" r="2.51253" fill="#A1C487" fill-opacity="0.69"/>
<circle cx="1143.04" cy="233.936" r="2.51253" fill="#A1C487" fill-opacity="0.69"/>
<circle cx="1189.52" cy="233.936" r="2.51253" fill="#A1C487" fill-opacity="0.69"/>
<circle cx="27.4763" cy="188.71" r="2.51253" fill="#A1C487" fill-opacity="0.69"/>
<circle cx="73.9582" cy="188.71" r="2.51253" fill="#A1C487" fill-opacity="0.69"/>
<circle cx="120.44" cy="188.71" r="2.51253" fill="#A1C487" fill-opacity="0.69"/>
<circle cx="166.922" cy="188.71" r="2.51253" fill="#A1C487" fill-opacity="0.69"/>
<circle cx="213.404" cy="188.71" r="2.51253" fill="#A1C487" fill-opacity="0.69"/>
<circle cx="259.886" cy="188.71" r="2.51253" fill="#A1C487" fill-opacity="0.69"/>
<circle cx="306.368" cy="188.71" r="2.51253" fill="#A1C487" fill-opacity="0.69"/>
<circle cx="352.85" cy="188.71" r="2.51253" fill="#A1C487" fill-opacity="0.69"/>
<circle cx="399.332" cy="188.71" r="2.51253" fill="#A1C487" fill-opacity="0.69"/>
<circle cx="445.813" cy="188.71" r="2.51253" fill="#A1C487" fill-opacity="0.69"/>
<circle cx="492.295" cy="188.71" r="2.51253" fill="#A1C487" fill-opacity="0.69"/>
<circle cx="538.777" cy="188.71" r="2.51253" fill="#A1C487" fill-opacity="0.69"/>
<circle cx="585.259" cy="188.71" r="2.51253" fill="#A1C487" fill-opacity="0.69"/>
<circle cx="631.741" cy="188.71" r="2.51253" fill="#A1C487" fill-opacity="0.69"/>
<circle cx="678.223" cy="188.71" r="2.51253" fill="#A1C487" fill-opacity="0.69"/>
<circle cx="724.705" cy="188.71" r="2.51253" fill="#A1C487" fill-opacity="0.69"/>
<circle cx="771.187" cy="188.71" r="2.51253" fill="#A1C487" fill-opacity="0.69"/>
<circle cx="817.669" cy="188.71" r="2.51253" fill="#A1C487" fill-opacity="0.69"/>
<circle cx="864.15" cy="188.71" r="2.51253" fill="#A1C487" fill-opacity="0.69"/>
<circle cx="910.632" cy="188.71" r="2.51253" fill="#A1C487" fill-opacity="0.69"/>
<circle cx="957.114" cy="188.71" r="2.51253" fill="#A1C487" fill-opacity="0.69"/>
<circle cx="1003.6" cy="188.71" r="2.51253" fill="#A1C487" fill-opacity="0.69"/>
<circle cx="1050.08" cy="188.71" r="2.51253" fill="#A1C487" fill-opacity="0.69"/>
<circle cx="1096.56" cy="188.71" r="2.51253" fill="#A1C487" fill-opacity="0.69"/>
<circle cx="1143.04" cy="188.71" r="2.51253" fill="#A1C487" fill-opacity="0.69"/>
<circle cx="1189.52" cy="188.71" r="2.51253" fill="#A1C487" fill-opacity="0.69"/>
<circle cx="27.4763" cy="143.485" r="2.51253" fill="#A1C487" fill-opacity="0.69"/>
<circle cx="73.9582" cy="143.485" r="2.51253" fill="#A1C487" fill-opacity="0.69"/>
<circle cx="120.44" cy="143.485" r="2.51253" fill="#A1C487" fill-opacity="0.69"/>
<circle cx="166.922" cy="143.485" r="2.51253" fill="#A1C487" fill-opacity="0.69"/>
<circle cx="213.404" cy="143.485" r="2.51253" fill="#A1C487" fill-opacity="0.69"/>
<circle cx="259.886" cy="143.485" r="2.51253" fill="#A1C487" fill-opacity="0.69"/>
<circle cx="306.368" cy="143.485" r="2.51253" fill="#A1C487" fill-opacity="0.69"/>
<circle cx="352.85" cy="143.485" r="2.51253" fill="#A1C487" fill-opacity="0.69"/>
<circle cx="399.332" cy="143.485" r="2.51253" fill="#A1C487" fill-opacity="0.69"/>
<circle cx="445.813" cy="143.485" r="2.51253" fill="#A1C487" fill-opacity="0.69"/>
<circle cx="492.295" cy="143.485" r="2.51253" fill="#A1C487" fill-opacity="0.69"/>
<circle cx="538.777" cy="143.485" r="2.51253" fill="#A1C487" fill-opacity="0.69"/>
<circle cx="585.259" cy="143.485" r="2.51253" fill="#A1C487" fill-opacity="0.69"/>
<circle cx="631.741" cy="143.485" r="2.51253" fill="#A1C487" fill-opacity="0.69"/>
<circle cx="678.223" cy="143.485" r="2.51253" fill="#A1C487" fill-opacity="0.69"/>
<circle cx="724.705" cy="143.485" r="2.51253" fill="#A1C487" fill-opacity="0.69"/>
<circle cx="771.187" cy="143.485" r="2.51253" fill="#A1C487" fill-opacity="0.69"/>
<circle cx="817.669" cy="143.485" r="2.51253" fill="#A1C487" fill-opacity="0.69"/>
<circle cx="864.15" cy="143.485" r="2.51253" fill="#A1C487" fill-opacity="0.69"/>
<circle cx="910.632" cy="143.485" r="2.51253" fill="#A1C487" fill-opacity="0.69"/>
<circle cx="957.114" cy="143.485" r="2.51253" fill="#A1C487" fill-opacity="0.69"/>
<circle cx="1003.6" cy="143.485" r="2.51253" fill="#A1C487" fill-opacity="0.69"/>
<circle cx="1050.08" cy="143.485" r="2.51253" fill="#A1C487" fill-opacity="0.69"/>
<circle cx="1096.56" cy="143.485" r="2.51253" fill="#A1C487" fill-opacity="0.69"/>
<circle cx="1143.04" cy="143.485" r="2.51253" fill="#A1C487" fill-opacity="0.69"/>
<circle cx="1189.52" cy="143.485" r="2.51253" fill="#A1C487" fill-opacity="0.69"/>
<circle cx="27.4763" cy="98.2591" r="2.51253" fill="#A1C487" fill-opacity="0.69"/>
<circle cx="73.9582" cy="98.2591" r="2.51253" fill="#A1C487" fill-opacity="0.69"/>
<circle cx="120.44" cy="98.2591" r="2.51253" fill="#A1C487" fill-opacity="0.69"/>
<circle cx="166.922" cy="98.2591" r="2.51253" fill="#A1C487" fill-opacity="0.69"/>
<circle cx="213.404" cy="98.2591" r="2.51253" fill="#A1C487" fill-opacity="0.69"/>
<circle cx="259.886" cy="98.2591" r="2.51253" fill="#A1C487" fill-opacity="0.69"/>
<circle cx="306.368" cy="98.2591" r="2.51253" fill="#A1C487" fill-opacity="0.69"/>
<circle cx="352.85" cy="98.2591" r="2.51253" fill="#A1C487" fill-opacity="0.69"/>
<circle cx="399.332" cy="98.2591" r="2.51253" fill="#A1C487" fill-opacity="0.69"/>
<circle cx="445.813" cy="98.2591" r="2.51253" fill="#A1C487" fill-opacity="0.69"/>
<circle cx="492.295" cy="98.2591" r="2.51253" fill="#A1C487" fill-opacity="0.69"/>
<circle cx="538.777" cy="98.2591" r="2.51253" fill="#A1C487" fill-opacity="0.69"/>
<circle cx="585.259" cy="98.2591" r="2.51253" fill="#A1C487" fill-opacity="0.69"/>
<circle cx="631.741" cy="98.2591" r="2.51253" fill="#A1C487" fill-opacity="0.69"/>
<circle cx="678.223" cy="98.2591" r="2.51253" fill="#A1C487" fill-opacity="0.69"/>
<circle cx="724.705" cy="98.2591" r="2.51253" fill="#A1C487" fill-opacity="0.69"/>
<circle cx="771.187" cy="98.2591" r="2.51253" fill="#A1C487" fill-opacity="0.69"/>
<circle cx="817.669" cy="98.2591" r="2.51253" fill="#A1C487" fill-opacity="0.69"/>
<circle cx="864.15" cy="98.2591" r="2.51253" fill="#A1C487" fill-opacity="0.69"/>
<circle cx="910.632" cy="98.2591" r="2.51253" fill="#A1C487" fill-opacity="0.69"/>
<circle cx="957.114" cy="98.2591" r="2.51253" fill="#A1C487" fill-opacity="0.69"/>
<circle cx="1003.6" cy="98.2591" r="2.51253" fill="#A1C487" fill-opacity="0.69"/>
<circle cx="1050.08" cy="98.2591" r="2.51253" fill="#A1C487" fill-opacity="0.69"/>
<circle cx="1096.56" cy="98.2591" r="2.51253" fill="#A1C487" fill-opacity="0.69"/>
<circle cx="1143.04" cy="98.2591" r="2.51253" fill="#A1C487" fill-opacity="0.69"/>
<circle cx="1189.52" cy="98.2591" r="2.51253" fill="#A1C487" fill-opacity="0.69"/>
<circle cx="27.4763" cy="53.0335" r="2.51253" fill="#A1C487" fill-opacity="0.69"/>
<circle cx="73.9582" cy="53.0335" r="2.51253" fill="#A1C487" fill-opacity="0.69"/>
<circle cx="120.44" cy="53.0335" r="2.51253" fill="#A1C487" fill-opacity="0.69"/>
<circle cx="166.922" cy="53.0335" r="2.51253" fill="#A1C487" fill-opacity="0.69"/>
<circle cx="213.404" cy="53.0335" r="2.51253" fill="#A1C487" fill-opacity="0.69"/>
<circle cx="259.886" cy="53.0335" r="2.51253" fill="#A1C487" fill-opacity="0.69"/>
<circle cx="306.368" cy="53.0335" r="2.51253" fill="#A1C487" fill-opacity="0.69"/>
<circle cx="352.85" cy="53.0335" r="2.51253" fill="#A1C487" fill-opacity="0.69"/>
<circle cx="399.332" cy="53.0335" r="2.51253" fill="#A1C487" fill-opacity="0.69"/>
<circle cx="445.813" cy="53.0335" r="2.51253" fill="#A1C487" fill-opacity="0.69"/>
<circle cx="492.295" cy="53.0335" r="2.51253" fill="#A1C487" fill-opacity="0.69"/>
<circle cx="538.777" cy="53.0335" r="2.51253" fill="#A1C487" fill-opacity="0.69"/>
<circle cx="585.259" cy="53.0335" r="2.51253" fill="#A1C487" fill-opacity="0.69"/>
<circle cx="631.741" cy="53.0335" r="2.51253" fill="#A1C487" fill-opacity="0.69"/>
<circle cx="678.223" cy="53.0335" r="2.51253" fill="#A1C487" fill-opacity="0.69"/>
<circle cx="724.705" cy="53.0335" r="2.51253" fill="#A1C487" fill-opacity="0.69"/>
<circle cx="771.187" cy="53.0335" r="2.51253" fill="#A1C487" fill-opacity="0.69"/>
<circle cx="817.669" cy="53.0335" r="2.51253" fill="#A1C487" fill-opacity="0.69"/>
<circle cx="864.15" cy="53.0335" r="2.51253" fill="#A1C487" fill-opacity="0.69"/>
<circle cx="910.632" cy="53.0335" r="2.51253" fill="#A1C487" fill-opacity="0.69"/>
<circle cx="957.114" cy="53.0335" r="2.51253" fill="#A1C487" fill-opacity="0.69"/>
<circle cx="1003.6" cy="53.0335" r="2.51253" fill="#A1C487" fill-opacity="0.69"/>
<circle cx="1050.08" cy="53.0335" r="2.51253" fill="#A1C487" fill-opacity="0.69"/>
<circle cx="1096.56" cy="53.0335" r="2.51253" fill="#A1C487" fill-opacity="0.69"/>
<circle cx="1143.04" cy="53.0335" r="2.51253" fill="#A1C487" fill-opacity="0.69"/>
<circle cx="1189.52" cy="53.0335" r="2.51253" fill="#A1C487" fill-opacity="0.69"/>
<circle cx="27.4763" cy="7.8077" r="2.51253" fill="#A1C487" fill-opacity="0.69"/>
<circle cx="73.9582" cy="7.8077" r="2.51253" fill="#A1C487" fill-opacity="0.69"/>
<circle cx="120.44" cy="7.8077" r="2.51253" fill="#A1C487" fill-opacity="0.69"/>
<circle cx="166.922" cy="7.8077" r="2.51253" fill="#A1C487" fill-opacity="0.69"/>
<circle cx="213.404" cy="7.8077" r="2.51253" fill="#A1C487" fill-opacity="0.69"/>
<circle cx="259.886" cy="7.8077" r="2.51253" fill="#A1C487" fill-opacity="0.69"/>
<circle cx="306.368" cy="7.8077" r="2.51253" fill="#A1C487" fill-opacity="0.69"/>
<circle cx="352.85" cy="7.8077" r="2.51253" fill="#A1C487" fill-opacity="0.69"/>
<circle cx="399.332" cy="7.8077" r="2.51253" fill="#A1C487" fill-opacity="0.69"/>
<circle cx="445.813" cy="7.8077" r="2.51253" fill="#A1C487" fill-opacity="0.69"/>
<circle cx="492.295" cy="7.8077" r="2.51253" fill="#A1C487" fill-opacity="0.69"/>
<circle cx="538.777" cy="7.8077" r="2.51253" fill="#A1C487" fill-opacity="0.69"/>
<circle cx="585.259" cy="7.8077" r="2.51253" fill="#A1C487" fill-opacity="0.69"/>
<circle cx="631.741" cy="7.8077" r="2.51253" fill="#A1C487" fill-opacity="0.69"/>
<circle cx="678.223" cy="7.8077" r="2.51253" fill="#A1C487" fill-opacity="0.69"/>
<circle cx="724.705" cy="7.8077" r="2.51253" fill="#A1C487" fill-opacity="0.69"/>
<circle cx="771.187" cy="7.8077" r="2.51253" fill="#A1C487" fill-opacity="0.69"/>
<circle cx="817.669" cy="7.8077" r="2.51253" fill="#A1C487" fill-opacity="0.69"/>
<circle cx="864.15" cy="7.8077" r="2.51253" fill="#A1C487" fill-opacity="0.69"/>
<circle cx="910.632" cy="7.8077" r="2.51253" fill="#A1C487" fill-opacity="0.69"/>
<circle cx="957.114" cy="7.8077" r="2.51253" fill="#A1C487" fill-opacity="0.69"/>
<circle cx="1003.6" cy="7.8077" r="2.51253" fill="#A1C487" fill-opacity="0.69"/>
<circle cx="1050.08" cy="7.8077" r="2.51253" fill="#A1C487" fill-opacity="0.69"/>
<circle cx="1096.56" cy="7.8077" r="2.51253" fill="#A1C487" fill-opacity="0.69"/>
<circle cx="1143.04" cy="7.8077" r="2.51253" fill="#A1C487" fill-opacity="0.69"/>
<circle cx="1189.52" cy="7.8077" r="2.51253" fill="#A1C487" fill-opacity="0.69"/>
</g>
</svg>
